<mxfile host="app.diagrams.net" modified="2021-05-08T12:00:21.585Z" agent="5.0 (Windows NT 10.0; Win64; x64) AppleWebKit/537.36 (KHTML, like Gecko) Chrome/90.0.4430.85 Safari/537.36" etag="8tv_24_kcrwgGiMrNmQj" version="14.6.10" type="github">
  <diagram id="C5RBs43oDa-KdzZeNtuy" name="Page-1">
    <mxGraphModel dx="1865" dy="548" grid="1" gridSize="10" guides="1" tooltips="1" connect="1" arrows="1" fold="1" page="1" pageScale="1" pageWidth="827" pageHeight="1169" math="0" shadow="0">
      <root>
        <mxCell id="WIyWlLk6GJQsqaUBKTNV-0" />
        <mxCell id="WIyWlLk6GJQsqaUBKTNV-1" parent="WIyWlLk6GJQsqaUBKTNV-0" />
        <mxCell id="et5DmNB6f5RG3TRqAMo6-3" style="edgeStyle=orthogonalEdgeStyle;rounded=0;orthogonalLoop=1;jettySize=auto;html=1;" edge="1" parent="WIyWlLk6GJQsqaUBKTNV-1">
          <mxGeometry relative="1" as="geometry">
            <mxPoint x="219.5" y="120" as="targetPoint" />
            <mxPoint x="219.5" y="100" as="sourcePoint" />
          </mxGeometry>
        </mxCell>
        <mxCell id="et5DmNB6f5RG3TRqAMo6-2" style="edgeStyle=orthogonalEdgeStyle;rounded=0;orthogonalLoop=1;jettySize=auto;html=1;exitX=0.5;exitY=1;exitDx=0;exitDy=0;" edge="1" parent="WIyWlLk6GJQsqaUBKTNV-1" source="et5DmNB6f5RG3TRqAMo6-0">
          <mxGeometry relative="1" as="geometry">
            <mxPoint x="220" y="60" as="targetPoint" />
          </mxGeometry>
        </mxCell>
        <mxCell id="et5DmNB6f5RG3TRqAMo6-0" value="Начало" style="ellipse;whiteSpace=wrap;html=1;" vertex="1" parent="WIyWlLk6GJQsqaUBKTNV-1">
          <mxGeometry x="160" width="120" height="40" as="geometry" />
        </mxCell>
        <mxCell id="et5DmNB6f5RG3TRqAMo6-4" value="&lt;div&gt;int[] array = {3,0,2,5,-1,4,1};&lt;/div&gt;&lt;div&gt;&lt;span&gt;int t;&lt;/span&gt;&lt;/div&gt;" style="rounded=0;whiteSpace=wrap;html=1;" vertex="1" parent="WIyWlLk6GJQsqaUBKTNV-1">
          <mxGeometry x="145" y="60" width="150" height="40" as="geometry" />
        </mxCell>
        <mxCell id="et5DmNB6f5RG3TRqAMo6-6" value="&amp;nbsp;Console.WriteLine(&quot;Original array :&quot;);" style="shape=parallelogram;perimeter=parallelogramPerimeter;whiteSpace=wrap;html=1;fixedSize=1;" vertex="1" parent="WIyWlLk6GJQsqaUBKTNV-1">
          <mxGeometry x="110" y="120" width="220" height="40" as="geometry" />
        </mxCell>
        <mxCell id="et5DmNB6f5RG3TRqAMo6-8" style="edgeStyle=orthogonalEdgeStyle;rounded=0;orthogonalLoop=1;jettySize=auto;html=1;exitX=0.5;exitY=1;exitDx=0;exitDy=0;" edge="1" parent="WIyWlLk6GJQsqaUBKTNV-1">
          <mxGeometry relative="1" as="geometry">
            <mxPoint x="219.5" y="160" as="sourcePoint" />
            <mxPoint x="219.5" y="180" as="targetPoint" />
          </mxGeometry>
        </mxCell>
        <mxCell id="et5DmNB6f5RG3TRqAMo6-9" value="&amp;nbsp;foreach (int a in array)" style="rhombus;whiteSpace=wrap;html=1;" vertex="1" parent="WIyWlLk6GJQsqaUBKTNV-1">
          <mxGeometry x="140" y="180" width="160" height="60" as="geometry" />
        </mxCell>
        <mxCell id="et5DmNB6f5RG3TRqAMo6-10" style="edgeStyle=orthogonalEdgeStyle;rounded=0;orthogonalLoop=1;jettySize=auto;html=1;exitX=0.5;exitY=1;exitDx=0;exitDy=0;" edge="1" parent="WIyWlLk6GJQsqaUBKTNV-1">
          <mxGeometry relative="1" as="geometry">
            <mxPoint x="219.5" y="240" as="sourcePoint" />
            <mxPoint x="219.5" y="260" as="targetPoint" />
          </mxGeometry>
        </mxCell>
        <mxCell id="et5DmNB6f5RG3TRqAMo6-17" value="" style="edgeStyle=orthogonalEdgeStyle;rounded=0;orthogonalLoop=1;jettySize=auto;html=1;" edge="1" parent="WIyWlLk6GJQsqaUBKTNV-1" source="et5DmNB6f5RG3TRqAMo6-14" target="et5DmNB6f5RG3TRqAMo6-16">
          <mxGeometry relative="1" as="geometry" />
        </mxCell>
        <mxCell id="et5DmNB6f5RG3TRqAMo6-14" value="&amp;nbsp;Console.Write(a + &quot; &quot;);" style="shape=parallelogram;perimeter=parallelogramPerimeter;whiteSpace=wrap;html=1;fixedSize=1;" vertex="1" parent="WIyWlLk6GJQsqaUBKTNV-1">
          <mxGeometry x="135" y="260" width="170" height="30" as="geometry" />
        </mxCell>
        <mxCell id="et5DmNB6f5RG3TRqAMo6-16" value="&amp;nbsp;for (int j = 0; j &amp;lt;= array.Length - 2; j++)" style="rhombus;whiteSpace=wrap;html=1;" vertex="1" parent="WIyWlLk6GJQsqaUBKTNV-1">
          <mxGeometry x="150" y="310" width="140" height="80" as="geometry" />
        </mxCell>
        <mxCell id="et5DmNB6f5RG3TRqAMo6-31" value="" style="edgeStyle=orthogonalEdgeStyle;rounded=0;orthogonalLoop=1;jettySize=auto;html=1;" edge="1" parent="WIyWlLk6GJQsqaUBKTNV-1" source="et5DmNB6f5RG3TRqAMo6-18" target="et5DmNB6f5RG3TRqAMo6-30">
          <mxGeometry relative="1" as="geometry" />
        </mxCell>
        <mxCell id="et5DmNB6f5RG3TRqAMo6-18" value="for (int i = 0; i &amp;lt;= array.Length - 2; i++)" style="rhombus;whiteSpace=wrap;html=1;" vertex="1" parent="WIyWlLk6GJQsqaUBKTNV-1">
          <mxGeometry x="150" y="410" width="140" height="80" as="geometry" />
        </mxCell>
        <mxCell id="et5DmNB6f5RG3TRqAMo6-20" value="" style="edgeStyle=orthogonalEdgeStyle;rounded=0;orthogonalLoop=1;jettySize=auto;html=1;" edge="1" parent="WIyWlLk6GJQsqaUBKTNV-1">
          <mxGeometry relative="1" as="geometry">
            <mxPoint x="290" y="349.5" as="sourcePoint" />
            <mxPoint x="320" y="349.5" as="targetPoint" />
          </mxGeometry>
        </mxCell>
        <mxCell id="et5DmNB6f5RG3TRqAMo6-21" value="Не" style="text;html=1;strokeColor=none;fillColor=none;align=center;verticalAlign=middle;whiteSpace=wrap;rounded=0;" vertex="1" parent="WIyWlLk6GJQsqaUBKTNV-1">
          <mxGeometry x="280" y="330" width="40" height="20" as="geometry" />
        </mxCell>
        <mxCell id="et5DmNB6f5RG3TRqAMo6-22" value="" style="edgeStyle=orthogonalEdgeStyle;rounded=0;orthogonalLoop=1;jettySize=auto;html=1;" edge="1" parent="WIyWlLk6GJQsqaUBKTNV-1">
          <mxGeometry relative="1" as="geometry">
            <mxPoint x="219.5" y="390" as="sourcePoint" />
            <mxPoint x="219.5" y="410" as="targetPoint" />
          </mxGeometry>
        </mxCell>
        <mxCell id="et5DmNB6f5RG3TRqAMo6-26" value="" style="edgeStyle=orthogonalEdgeStyle;rounded=0;orthogonalLoop=1;jettySize=auto;html=1;" edge="1" parent="WIyWlLk6GJQsqaUBKTNV-1" source="et5DmNB6f5RG3TRqAMo6-23" target="et5DmNB6f5RG3TRqAMo6-25">
          <mxGeometry relative="1" as="geometry" />
        </mxCell>
        <mxCell id="et5DmNB6f5RG3TRqAMo6-23" value="Console.WriteLine(&quot;\n&quot; + &quot;Sorted array :&quot;);" style="rounded=0;whiteSpace=wrap;html=1;" vertex="1" parent="WIyWlLk6GJQsqaUBKTNV-1">
          <mxGeometry x="320" y="335" width="130" height="30" as="geometry" />
        </mxCell>
        <mxCell id="et5DmNB6f5RG3TRqAMo6-24" value="Да" style="text;html=1;strokeColor=none;fillColor=none;align=center;verticalAlign=middle;whiteSpace=wrap;rounded=0;" vertex="1" parent="WIyWlLk6GJQsqaUBKTNV-1">
          <mxGeometry x="180" y="390" width="40" height="20" as="geometry" />
        </mxCell>
        <mxCell id="et5DmNB6f5RG3TRqAMo6-28" value="" style="edgeStyle=orthogonalEdgeStyle;rounded=0;orthogonalLoop=1;jettySize=auto;html=1;" edge="1" parent="WIyWlLk6GJQsqaUBKTNV-1" source="et5DmNB6f5RG3TRqAMo6-25">
          <mxGeometry relative="1" as="geometry">
            <mxPoint x="640" y="350" as="targetPoint" />
          </mxGeometry>
        </mxCell>
        <mxCell id="et5DmNB6f5RG3TRqAMo6-25" value="foreach (int a in array)" style="rhombus;whiteSpace=wrap;html=1;rounded=0;" vertex="1" parent="WIyWlLk6GJQsqaUBKTNV-1">
          <mxGeometry x="470" y="320" width="140" height="60" as="geometry" />
        </mxCell>
        <mxCell id="et5DmNB6f5RG3TRqAMo6-29" value="&lt;div&gt;Console.Write(a + &quot;&quot;);&lt;span&gt;&amp;nbsp; Console.Write(&quot;\n&quot;);&lt;/span&gt;&lt;/div&gt;" style="shape=parallelogram;perimeter=parallelogramPerimeter;whiteSpace=wrap;html=1;fixedSize=1;" vertex="1" parent="WIyWlLk6GJQsqaUBKTNV-1">
          <mxGeometry x="630" y="330" width="150" height="40" as="geometry" />
        </mxCell>
        <mxCell id="et5DmNB6f5RG3TRqAMo6-43" value="" style="edgeStyle=orthogonalEdgeStyle;rounded=0;orthogonalLoop=1;jettySize=auto;html=1;" edge="1" parent="WIyWlLk6GJQsqaUBKTNV-1" source="et5DmNB6f5RG3TRqAMo6-30" target="et5DmNB6f5RG3TRqAMo6-42">
          <mxGeometry relative="1" as="geometry" />
        </mxCell>
        <mxCell id="et5DmNB6f5RG3TRqAMo6-30" value="&amp;nbsp;if (array[i] &amp;gt; array[i + 1])" style="rhombus;whiteSpace=wrap;html=1;" vertex="1" parent="WIyWlLk6GJQsqaUBKTNV-1">
          <mxGeometry x="150" y="505" width="140" height="65" as="geometry" />
        </mxCell>
        <mxCell id="et5DmNB6f5RG3TRqAMo6-32" value="Да" style="text;html=1;strokeColor=none;fillColor=none;align=center;verticalAlign=middle;whiteSpace=wrap;rounded=0;" vertex="1" parent="WIyWlLk6GJQsqaUBKTNV-1">
          <mxGeometry x="180" y="485" width="40" height="20" as="geometry" />
        </mxCell>
        <mxCell id="et5DmNB6f5RG3TRqAMo6-33" value="Не" style="text;html=1;strokeColor=none;fillColor=none;align=center;verticalAlign=middle;whiteSpace=wrap;rounded=0;" vertex="1" parent="WIyWlLk6GJQsqaUBKTNV-1">
          <mxGeometry x="280" y="430" width="40" height="20" as="geometry" />
        </mxCell>
        <mxCell id="et5DmNB6f5RG3TRqAMo6-36" value="" style="edgeStyle=orthogonalEdgeStyle;rounded=0;orthogonalLoop=1;jettySize=auto;html=1;" edge="1" parent="WIyWlLk6GJQsqaUBKTNV-1">
          <mxGeometry relative="1" as="geometry">
            <mxPoint x="290" y="450" as="sourcePoint" />
            <mxPoint x="310" y="450" as="targetPoint" />
          </mxGeometry>
        </mxCell>
        <mxCell id="et5DmNB6f5RG3TRqAMo6-37" value="j++" style="rounded=0;whiteSpace=wrap;html=1;" vertex="1" parent="WIyWlLk6GJQsqaUBKTNV-1">
          <mxGeometry x="310" y="440" width="30" height="20" as="geometry" />
        </mxCell>
        <mxCell id="et5DmNB6f5RG3TRqAMo6-38" value="" style="edgeStyle=orthogonalEdgeStyle;rounded=0;orthogonalLoop=1;jettySize=auto;html=1;" edge="1" parent="WIyWlLk6GJQsqaUBKTNV-1">
          <mxGeometry relative="1" as="geometry">
            <mxPoint x="290" y="537.5" as="sourcePoint" />
            <mxPoint x="310" y="537.5" as="targetPoint" />
          </mxGeometry>
        </mxCell>
        <mxCell id="et5DmNB6f5RG3TRqAMo6-39" value="i++" style="rounded=0;whiteSpace=wrap;html=1;" vertex="1" parent="WIyWlLk6GJQsqaUBKTNV-1">
          <mxGeometry x="310" y="526" width="30" height="20" as="geometry" />
        </mxCell>
        <mxCell id="et5DmNB6f5RG3TRqAMo6-41" value="Не" style="text;html=1;strokeColor=none;fillColor=none;align=center;verticalAlign=middle;whiteSpace=wrap;rounded=0;" vertex="1" parent="WIyWlLk6GJQsqaUBKTNV-1">
          <mxGeometry x="280" y="510" width="40" height="20" as="geometry" />
        </mxCell>
        <mxCell id="et5DmNB6f5RG3TRqAMo6-46" value="" style="edgeStyle=orthogonalEdgeStyle;rounded=0;orthogonalLoop=1;jettySize=auto;html=1;" edge="1" parent="WIyWlLk6GJQsqaUBKTNV-1" source="et5DmNB6f5RG3TRqAMo6-42">
          <mxGeometry relative="1" as="geometry">
            <mxPoint x="220" y="660" as="targetPoint" />
          </mxGeometry>
        </mxCell>
        <mxCell id="et5DmNB6f5RG3TRqAMo6-42" value="&lt;div&gt;t = array[i + 1];&lt;/div&gt;&lt;div&gt;&lt;span&gt;&amp;nbsp;array[i + 1] = array[i];&lt;/span&gt;&lt;/div&gt;&lt;div&gt;&lt;span&gt;array[i] = t;&lt;/span&gt;&lt;/div&gt;" style="whiteSpace=wrap;html=1;" vertex="1" parent="WIyWlLk6GJQsqaUBKTNV-1">
          <mxGeometry x="160" y="585" width="120" height="55" as="geometry" />
        </mxCell>
        <mxCell id="et5DmNB6f5RG3TRqAMo6-44" value="Да" style="text;html=1;strokeColor=none;fillColor=none;align=center;verticalAlign=middle;whiteSpace=wrap;rounded=0;" vertex="1" parent="WIyWlLk6GJQsqaUBKTNV-1">
          <mxGeometry x="180" y="565" width="40" height="20" as="geometry" />
        </mxCell>
        <mxCell id="et5DmNB6f5RG3TRqAMo6-49" value="" style="edgeStyle=orthogonalEdgeStyle;rounded=0;orthogonalLoop=1;jettySize=auto;html=1;" edge="1" parent="WIyWlLk6GJQsqaUBKTNV-1" source="et5DmNB6f5RG3TRqAMo6-47" target="et5DmNB6f5RG3TRqAMo6-48">
          <mxGeometry relative="1" as="geometry" />
        </mxCell>
        <mxCell id="et5DmNB6f5RG3TRqAMo6-47" value="Console.WriteLine(&quot;\n&quot; + &quot;Sorted array :&quot;);" style="shape=parallelogram;perimeter=parallelogramPerimeter;whiteSpace=wrap;html=1;fixedSize=1;" vertex="1" parent="WIyWlLk6GJQsqaUBKTNV-1">
          <mxGeometry x="120" y="660" width="200" height="40" as="geometry" />
        </mxCell>
        <mxCell id="et5DmNB6f5RG3TRqAMo6-51" value="" style="edgeStyle=orthogonalEdgeStyle;rounded=0;orthogonalLoop=1;jettySize=auto;html=1;" edge="1" parent="WIyWlLk6GJQsqaUBKTNV-1" source="et5DmNB6f5RG3TRqAMo6-48" target="et5DmNB6f5RG3TRqAMo6-50">
          <mxGeometry relative="1" as="geometry" />
        </mxCell>
        <mxCell id="et5DmNB6f5RG3TRqAMo6-48" value="foreach (int a in array)" style="rhombus;whiteSpace=wrap;html=1;" vertex="1" parent="WIyWlLk6GJQsqaUBKTNV-1">
          <mxGeometry x="155" y="720" width="130" height="60" as="geometry" />
        </mxCell>
        <mxCell id="et5DmNB6f5RG3TRqAMo6-53" value="" style="edgeStyle=orthogonalEdgeStyle;rounded=0;orthogonalLoop=1;jettySize=auto;html=1;" edge="1" parent="WIyWlLk6GJQsqaUBKTNV-1" source="et5DmNB6f5RG3TRqAMo6-50" target="et5DmNB6f5RG3TRqAMo6-52">
          <mxGeometry relative="1" as="geometry" />
        </mxCell>
        <mxCell id="et5DmNB6f5RG3TRqAMo6-50" value="&lt;div&gt;Console.Write(a + &quot; &quot;);&lt;span&gt;&amp;nbsp; Console.Write(&quot;\n&quot;)&lt;/span&gt;&lt;/div&gt;" style="shape=parallelogram;perimeter=parallelogramPerimeter;whiteSpace=wrap;html=1;fixedSize=1;" vertex="1" parent="WIyWlLk6GJQsqaUBKTNV-1">
          <mxGeometry x="145" y="800" width="150" height="40" as="geometry" />
        </mxCell>
        <mxCell id="et5DmNB6f5RG3TRqAMo6-55" value="" style="edgeStyle=orthogonalEdgeStyle;rounded=0;orthogonalLoop=1;jettySize=auto;html=1;" edge="1" parent="WIyWlLk6GJQsqaUBKTNV-1" source="et5DmNB6f5RG3TRqAMo6-52" target="et5DmNB6f5RG3TRqAMo6-54">
          <mxGeometry relative="1" as="geometry" />
        </mxCell>
        <mxCell id="et5DmNB6f5RG3TRqAMo6-52" value="int n = array.Length;" style="whiteSpace=wrap;html=1;" vertex="1" parent="WIyWlLk6GJQsqaUBKTNV-1">
          <mxGeometry x="160" y="860" width="120" height="30" as="geometry" />
        </mxCell>
        <mxCell id="et5DmNB6f5RG3TRqAMo6-57" value="" style="edgeStyle=orthogonalEdgeStyle;rounded=0;orthogonalLoop=1;jettySize=auto;html=1;" edge="1" parent="WIyWlLk6GJQsqaUBKTNV-1" source="et5DmNB6f5RG3TRqAMo6-54" target="et5DmNB6f5RG3TRqAMo6-56">
          <mxGeometry relative="1" as="geometry" />
        </mxCell>
        <mxCell id="et5DmNB6f5RG3TRqAMo6-54" value="&lt;div&gt;Console.WriteLine(&quot;Enter a number&quot;)&lt;/div&gt;&lt;div&gt;&amp;nbsp; int x = int.Parse(Console.ReadLine());&lt;/div&gt;&lt;div&gt;&amp;nbsp; &amp;nbsp; &amp;nbsp; &amp;nbsp;Console.WriteLine(&quot;Binary search result:&quot;);&lt;/div&gt;" style="shape=parallelogram;perimeter=parallelogramPerimeter;whiteSpace=wrap;html=1;fixedSize=1;" vertex="1" parent="WIyWlLk6GJQsqaUBKTNV-1">
          <mxGeometry x="90" y="900" width="260" height="50" as="geometry" />
        </mxCell>
        <mxCell id="et5DmNB6f5RG3TRqAMo6-59" value="" style="edgeStyle=orthogonalEdgeStyle;rounded=0;orthogonalLoop=1;jettySize=auto;html=1;" edge="1" parent="WIyWlLk6GJQsqaUBKTNV-1" source="et5DmNB6f5RG3TRqAMo6-56" target="et5DmNB6f5RG3TRqAMo6-58">
          <mxGeometry relative="1" as="geometry" />
        </mxCell>
        <mxCell id="et5DmNB6f5RG3TRqAMo6-56" value="int firstResult = BinarySearch(array, 0, n - 1, x);" style="whiteSpace=wrap;html=1;" vertex="1" parent="WIyWlLk6GJQsqaUBKTNV-1">
          <mxGeometry x="120" y="970" width="200" height="35" as="geometry" />
        </mxCell>
        <mxCell id="et5DmNB6f5RG3TRqAMo6-61" value="" style="edgeStyle=orthogonalEdgeStyle;rounded=0;orthogonalLoop=1;jettySize=auto;html=1;" edge="1" parent="WIyWlLk6GJQsqaUBKTNV-1" source="et5DmNB6f5RG3TRqAMo6-58" target="et5DmNB6f5RG3TRqAMo6-60">
          <mxGeometry relative="1" as="geometry" />
        </mxCell>
        <mxCell id="et5DmNB6f5RG3TRqAMo6-65" value="" style="edgeStyle=orthogonalEdgeStyle;rounded=0;orthogonalLoop=1;jettySize=auto;html=1;" edge="1" parent="WIyWlLk6GJQsqaUBKTNV-1" source="et5DmNB6f5RG3TRqAMo6-58" target="et5DmNB6f5RG3TRqAMo6-64">
          <mxGeometry relative="1" as="geometry" />
        </mxCell>
        <mxCell id="et5DmNB6f5RG3TRqAMo6-58" value="if (firstResult == -1)" style="rhombus;whiteSpace=wrap;html=1;" vertex="1" parent="WIyWlLk6GJQsqaUBKTNV-1">
          <mxGeometry x="160" y="1020" width="120" height="47.5" as="geometry" />
        </mxCell>
        <mxCell id="et5DmNB6f5RG3TRqAMo6-82" style="edgeStyle=orthogonalEdgeStyle;rounded=0;orthogonalLoop=1;jettySize=auto;html=1;entryX=0.5;entryY=0;entryDx=0;entryDy=0;" edge="1" parent="WIyWlLk6GJQsqaUBKTNV-1" source="et5DmNB6f5RG3TRqAMo6-60" target="et5DmNB6f5RG3TRqAMo6-80">
          <mxGeometry relative="1" as="geometry">
            <mxPoint x="390" y="1110" as="targetPoint" />
            <Array as="points">
              <mxPoint x="395" y="1110" />
              <mxPoint x="210" y="1110" />
            </Array>
          </mxGeometry>
        </mxCell>
        <mxCell id="et5DmNB6f5RG3TRqAMo6-60" value="Console.WriteLine(&quot;Element not present&quot;);" style="shape=parallelogram;perimeter=parallelogramPerimeter;whiteSpace=wrap;html=1;fixedSize=1;" vertex="1" parent="WIyWlLk6GJQsqaUBKTNV-1">
          <mxGeometry x="290" y="1025.6200000000001" width="210" height="36.25" as="geometry" />
        </mxCell>
        <mxCell id="et5DmNB6f5RG3TRqAMo6-62" value="Да" style="text;html=1;strokeColor=none;fillColor=none;align=center;verticalAlign=middle;whiteSpace=wrap;rounded=0;" vertex="1" parent="WIyWlLk6GJQsqaUBKTNV-1">
          <mxGeometry x="270" y="1020" width="40" height="20" as="geometry" />
        </mxCell>
        <mxCell id="et5DmNB6f5RG3TRqAMo6-81" value="" style="edgeStyle=orthogonalEdgeStyle;rounded=0;orthogonalLoop=1;jettySize=auto;html=1;" edge="1" parent="WIyWlLk6GJQsqaUBKTNV-1" source="et5DmNB6f5RG3TRqAMo6-64" target="et5DmNB6f5RG3TRqAMo6-80">
          <mxGeometry relative="1" as="geometry">
            <Array as="points">
              <mxPoint x="40" y="1110" />
              <mxPoint x="210" y="1110" />
            </Array>
          </mxGeometry>
        </mxCell>
        <mxCell id="et5DmNB6f5RG3TRqAMo6-64" value="&amp;nbsp;Console.WriteLine(&quot;Element found at index &quot; + firstResult);" style="shape=parallelogram;perimeter=parallelogramPerimeter;whiteSpace=wrap;html=1;fixedSize=1;" vertex="1" parent="WIyWlLk6GJQsqaUBKTNV-1">
          <mxGeometry x="-55" y="1021.25" width="190" height="46.25" as="geometry" />
        </mxCell>
        <mxCell id="et5DmNB6f5RG3TRqAMo6-66" value="Не" style="text;html=1;strokeColor=none;fillColor=none;align=center;verticalAlign=middle;whiteSpace=wrap;rounded=0;" vertex="1" parent="WIyWlLk6GJQsqaUBKTNV-1">
          <mxGeometry x="130" y="1020" width="40" height="20" as="geometry" />
        </mxCell>
        <mxCell id="et5DmNB6f5RG3TRqAMo6-84" value="" style="edgeStyle=orthogonalEdgeStyle;rounded=0;orthogonalLoop=1;jettySize=auto;html=1;" edge="1" parent="WIyWlLk6GJQsqaUBKTNV-1" source="et5DmNB6f5RG3TRqAMo6-80" target="et5DmNB6f5RG3TRqAMo6-83">
          <mxGeometry relative="1" as="geometry" />
        </mxCell>
        <mxCell id="et5DmNB6f5RG3TRqAMo6-80" value="Console.WriteLine(&quot;Linear search result:&quot;);" style="shape=parallelogram;perimeter=parallelogramPerimeter;whiteSpace=wrap;html=1;fixedSize=1;" vertex="1" parent="WIyWlLk6GJQsqaUBKTNV-1">
          <mxGeometry x="115" y="1130" width="190" height="42.5" as="geometry" />
        </mxCell>
        <mxCell id="et5DmNB6f5RG3TRqAMo6-88" value="" style="edgeStyle=orthogonalEdgeStyle;rounded=0;orthogonalLoop=1;jettySize=auto;html=1;" edge="1" parent="WIyWlLk6GJQsqaUBKTNV-1" source="et5DmNB6f5RG3TRqAMo6-83" target="et5DmNB6f5RG3TRqAMo6-87">
          <mxGeometry relative="1" as="geometry" />
        </mxCell>
        <mxCell id="et5DmNB6f5RG3TRqAMo6-83" value="int secondResult = search(array, x);" style="whiteSpace=wrap;html=1;" vertex="1" parent="WIyWlLk6GJQsqaUBKTNV-1">
          <mxGeometry x="150" y="1190" width="120" height="38.75" as="geometry" />
        </mxCell>
        <mxCell id="et5DmNB6f5RG3TRqAMo6-90" value="" style="edgeStyle=orthogonalEdgeStyle;rounded=0;orthogonalLoop=1;jettySize=auto;html=1;" edge="1" parent="WIyWlLk6GJQsqaUBKTNV-1" source="et5DmNB6f5RG3TRqAMo6-87" target="et5DmNB6f5RG3TRqAMo6-89">
          <mxGeometry relative="1" as="geometry" />
        </mxCell>
        <mxCell id="et5DmNB6f5RG3TRqAMo6-93" value="" style="edgeStyle=orthogonalEdgeStyle;rounded=0;orthogonalLoop=1;jettySize=auto;html=1;" edge="1" parent="WIyWlLk6GJQsqaUBKTNV-1" source="et5DmNB6f5RG3TRqAMo6-87" target="et5DmNB6f5RG3TRqAMo6-92">
          <mxGeometry relative="1" as="geometry" />
        </mxCell>
        <mxCell id="et5DmNB6f5RG3TRqAMo6-87" value="if (secondResult == -1)" style="rhombus;whiteSpace=wrap;html=1;" vertex="1" parent="WIyWlLk6GJQsqaUBKTNV-1">
          <mxGeometry x="140" y="1250" width="140" height="60" as="geometry" />
        </mxCell>
        <mxCell id="et5DmNB6f5RG3TRqAMo6-89" value="&amp;nbsp;Console.WriteLine(&quot;Element is not present in array&quot;);" style="shape=parallelogram;perimeter=parallelogramPerimeter;whiteSpace=wrap;html=1;fixedSize=1;" vertex="1" parent="WIyWlLk6GJQsqaUBKTNV-1">
          <mxGeometry x="-100" y="1260" width="210" height="40" as="geometry" />
        </mxCell>
        <mxCell id="et5DmNB6f5RG3TRqAMo6-91" value="Да" style="text;html=1;strokeColor=none;fillColor=none;align=center;verticalAlign=middle;whiteSpace=wrap;rounded=0;" vertex="1" parent="WIyWlLk6GJQsqaUBKTNV-1">
          <mxGeometry x="105" y="1260" width="40" height="20" as="geometry" />
        </mxCell>
        <mxCell id="et5DmNB6f5RG3TRqAMo6-92" value="Console.WriteLine(&quot;Element is present at index &quot; + secondResult);" style="shape=parallelogram;perimeter=parallelogramPerimeter;whiteSpace=wrap;html=1;fixedSize=1;" vertex="1" parent="WIyWlLk6GJQsqaUBKTNV-1">
          <mxGeometry x="304" y="1260" width="220" height="40" as="geometry" />
        </mxCell>
        <mxCell id="et5DmNB6f5RG3TRqAMo6-94" value="Не" style="text;html=1;strokeColor=none;fillColor=none;align=center;verticalAlign=middle;whiteSpace=wrap;rounded=0;" vertex="1" parent="WIyWlLk6GJQsqaUBKTNV-1">
          <mxGeometry x="270" y="1260" width="40" height="20" as="geometry" />
        </mxCell>
        <mxCell id="et5DmNB6f5RG3TRqAMo6-95" value="" style="edgeStyle=orthogonalEdgeStyle;rounded=0;orthogonalLoop=1;jettySize=auto;html=1;" edge="1" parent="WIyWlLk6GJQsqaUBKTNV-1">
          <mxGeometry relative="1" as="geometry">
            <mxPoint y="1296" as="sourcePoint" />
            <mxPoint x="210" y="1370" as="targetPoint" />
            <Array as="points">
              <mxPoint y="1339" />
              <mxPoint x="210" y="1339" />
            </Array>
          </mxGeometry>
        </mxCell>
        <mxCell id="et5DmNB6f5RG3TRqAMo6-96" style="edgeStyle=orthogonalEdgeStyle;rounded=0;orthogonalLoop=1;jettySize=auto;html=1;" edge="1" parent="WIyWlLk6GJQsqaUBKTNV-1">
          <mxGeometry relative="1" as="geometry">
            <mxPoint x="210" y="1370" as="targetPoint" />
            <mxPoint x="414" y="1300" as="sourcePoint" />
            <Array as="points">
              <mxPoint x="414" y="1340" />
              <mxPoint x="210" y="1340" />
            </Array>
          </mxGeometry>
        </mxCell>
        <mxCell id="et5DmNB6f5RG3TRqAMo6-99" value="" style="edgeStyle=orthogonalEdgeStyle;rounded=0;orthogonalLoop=1;jettySize=auto;html=1;" edge="1" parent="WIyWlLk6GJQsqaUBKTNV-1" source="et5DmNB6f5RG3TRqAMo6-97" target="et5DmNB6f5RG3TRqAMo6-98">
          <mxGeometry relative="1" as="geometry" />
        </mxCell>
        <mxCell id="et5DmNB6f5RG3TRqAMo6-97" value="static int BinarySearch(int[] binArr, int l, int r, int x)" style="rounded=0;whiteSpace=wrap;html=1;" vertex="1" parent="WIyWlLk6GJQsqaUBKTNV-1">
          <mxGeometry x="127.5" y="1370" width="165" height="40" as="geometry" />
        </mxCell>
        <mxCell id="et5DmNB6f5RG3TRqAMo6-101" value="" style="edgeStyle=orthogonalEdgeStyle;rounded=0;orthogonalLoop=1;jettySize=auto;html=1;" edge="1" parent="WIyWlLk6GJQsqaUBKTNV-1" source="et5DmNB6f5RG3TRqAMo6-98" target="et5DmNB6f5RG3TRqAMo6-100">
          <mxGeometry relative="1" as="geometry" />
        </mxCell>
        <mxCell id="et5DmNB6f5RG3TRqAMo6-109" value="" style="edgeStyle=orthogonalEdgeStyle;rounded=0;orthogonalLoop=1;jettySize=auto;html=1;" edge="1" parent="WIyWlLk6GJQsqaUBKTNV-1" source="et5DmNB6f5RG3TRqAMo6-98" target="et5DmNB6f5RG3TRqAMo6-108">
          <mxGeometry relative="1" as="geometry" />
        </mxCell>
        <mxCell id="et5DmNB6f5RG3TRqAMo6-98" value="if (r &amp;gt;= l)" style="rhombus;whiteSpace=wrap;html=1;rounded=0;" vertex="1" parent="WIyWlLk6GJQsqaUBKTNV-1">
          <mxGeometry x="170" y="1430" width="80" height="50" as="geometry" />
        </mxCell>
        <mxCell id="et5DmNB6f5RG3TRqAMo6-104" value="" style="edgeStyle=orthogonalEdgeStyle;rounded=0;orthogonalLoop=1;jettySize=auto;html=1;" edge="1" parent="WIyWlLk6GJQsqaUBKTNV-1" source="et5DmNB6f5RG3TRqAMo6-100" target="et5DmNB6f5RG3TRqAMo6-103">
          <mxGeometry relative="1" as="geometry" />
        </mxCell>
        <mxCell id="et5DmNB6f5RG3TRqAMo6-100" value="int mid = l + (r - l) / 2;" style="whiteSpace=wrap;html=1;rounded=0;" vertex="1" parent="WIyWlLk6GJQsqaUBKTNV-1">
          <mxGeometry x="280" y="1432.5" width="90" height="45" as="geometry" />
        </mxCell>
        <mxCell id="et5DmNB6f5RG3TRqAMo6-102" value="Да" style="text;html=1;strokeColor=none;fillColor=none;align=center;verticalAlign=middle;whiteSpace=wrap;rounded=0;" vertex="1" parent="WIyWlLk6GJQsqaUBKTNV-1">
          <mxGeometry x="240" y="1430" width="40" height="20" as="geometry" />
        </mxCell>
        <mxCell id="et5DmNB6f5RG3TRqAMo6-106" value="" style="edgeStyle=orthogonalEdgeStyle;rounded=0;orthogonalLoop=1;jettySize=auto;html=1;" edge="1" parent="WIyWlLk6GJQsqaUBKTNV-1" source="et5DmNB6f5RG3TRqAMo6-103" target="et5DmNB6f5RG3TRqAMo6-105">
          <mxGeometry relative="1" as="geometry" />
        </mxCell>
        <mxCell id="et5DmNB6f5RG3TRqAMo6-103" value="if (binArr[mid] == x)" style="rhombus;whiteSpace=wrap;html=1;rounded=0;" vertex="1" parent="WIyWlLk6GJQsqaUBKTNV-1">
          <mxGeometry x="399" y="1427.5" width="125" height="55" as="geometry" />
        </mxCell>
        <mxCell id="et5DmNB6f5RG3TRqAMo6-105" value="&amp;nbsp;return mid;" style="shape=parallelogram;perimeter=parallelogramPerimeter;whiteSpace=wrap;html=1;fixedSize=1;rounded=0;" vertex="1" parent="WIyWlLk6GJQsqaUBKTNV-1">
          <mxGeometry x="540" y="1437.5" width="100" height="35" as="geometry" />
        </mxCell>
        <mxCell id="et5DmNB6f5RG3TRqAMo6-107" value="Да" style="text;html=1;strokeColor=none;fillColor=none;align=center;verticalAlign=middle;whiteSpace=wrap;rounded=0;" vertex="1" parent="WIyWlLk6GJQsqaUBKTNV-1">
          <mxGeometry x="510" y="1430" width="40" height="20" as="geometry" />
        </mxCell>
        <mxCell id="et5DmNB6f5RG3TRqAMo6-111" value="" style="edgeStyle=orthogonalEdgeStyle;rounded=0;orthogonalLoop=1;jettySize=auto;html=1;" edge="1" parent="WIyWlLk6GJQsqaUBKTNV-1" source="et5DmNB6f5RG3TRqAMo6-108" target="et5DmNB6f5RG3TRqAMo6-110">
          <mxGeometry relative="1" as="geometry" />
        </mxCell>
        <mxCell id="et5DmNB6f5RG3TRqAMo6-114" value="" style="edgeStyle=orthogonalEdgeStyle;rounded=0;orthogonalLoop=1;jettySize=auto;html=1;" edge="1" parent="WIyWlLk6GJQsqaUBKTNV-1" source="et5DmNB6f5RG3TRqAMo6-108" target="et5DmNB6f5RG3TRqAMo6-113">
          <mxGeometry relative="1" as="geometry" />
        </mxCell>
        <mxCell id="et5DmNB6f5RG3TRqAMo6-108" value="if (binArr[mid] &amp;gt; x)" style="rhombus;whiteSpace=wrap;html=1;rounded=0;" vertex="1" parent="WIyWlLk6GJQsqaUBKTNV-1">
          <mxGeometry x="160" y="1500" width="100" height="50" as="geometry" />
        </mxCell>
        <mxCell id="et5DmNB6f5RG3TRqAMo6-110" value="return BinarySearch(binArr, l, mid - 1, x);" style="shape=parallelogram;perimeter=parallelogramPerimeter;whiteSpace=wrap;html=1;fixedSize=1;rounded=0;" vertex="1" parent="WIyWlLk6GJQsqaUBKTNV-1">
          <mxGeometry x="285" y="1502.5" width="230" height="45" as="geometry" />
        </mxCell>
        <mxCell id="et5DmNB6f5RG3TRqAMo6-112" value="Да" style="text;html=1;strokeColor=none;fillColor=none;align=center;verticalAlign=middle;whiteSpace=wrap;rounded=0;" vertex="1" parent="WIyWlLk6GJQsqaUBKTNV-1">
          <mxGeometry x="245" y="1500" width="40" height="20" as="geometry" />
        </mxCell>
        <mxCell id="et5DmNB6f5RG3TRqAMo6-113" value="return BinarySearch(binArr, mid + 1, r, x);" style="shape=parallelogram;perimeter=parallelogramPerimeter;whiteSpace=wrap;html=1;fixedSize=1;rounded=0;" vertex="1" parent="WIyWlLk6GJQsqaUBKTNV-1">
          <mxGeometry x="-105" y="1502.5" width="240" height="45" as="geometry" />
        </mxCell>
        <mxCell id="et5DmNB6f5RG3TRqAMo6-115" value="Не" style="text;html=1;strokeColor=none;fillColor=none;align=center;verticalAlign=middle;whiteSpace=wrap;rounded=0;" vertex="1" parent="WIyWlLk6GJQsqaUBKTNV-1">
          <mxGeometry x="135" y="1502.5" width="40" height="20" as="geometry" />
        </mxCell>
        <mxCell id="et5DmNB6f5RG3TRqAMo6-116" value="" style="edgeStyle=orthogonalEdgeStyle;rounded=0;orthogonalLoop=1;jettySize=auto;html=1;" edge="1" parent="WIyWlLk6GJQsqaUBKTNV-1">
          <mxGeometry relative="1" as="geometry">
            <mxPoint y="1547.5" as="sourcePoint" />
            <mxPoint x="210" y="1621.5" as="targetPoint" />
            <Array as="points">
              <mxPoint y="1590.5" />
              <mxPoint x="210" y="1590.5" />
            </Array>
          </mxGeometry>
        </mxCell>
        <mxCell id="et5DmNB6f5RG3TRqAMo6-117" style="edgeStyle=orthogonalEdgeStyle;rounded=0;orthogonalLoop=1;jettySize=auto;html=1;" edge="1" parent="WIyWlLk6GJQsqaUBKTNV-1">
          <mxGeometry relative="1" as="geometry">
            <mxPoint x="210" y="1621.5" as="targetPoint" />
            <mxPoint x="414" y="1551.5" as="sourcePoint" />
            <Array as="points">
              <mxPoint x="414" y="1591.5" />
              <mxPoint x="210" y="1591.5" />
            </Array>
          </mxGeometry>
        </mxCell>
        <mxCell id="et5DmNB6f5RG3TRqAMo6-124" value="" style="edgeStyle=orthogonalEdgeStyle;rounded=0;orthogonalLoop=1;jettySize=auto;html=1;" edge="1" parent="WIyWlLk6GJQsqaUBKTNV-1" source="et5DmNB6f5RG3TRqAMo6-118" target="et5DmNB6f5RG3TRqAMo6-121">
          <mxGeometry relative="1" as="geometry" />
        </mxCell>
        <mxCell id="et5DmNB6f5RG3TRqAMo6-118" value="return -1;" style="shape=parallelogram;perimeter=parallelogramPerimeter;whiteSpace=wrap;html=1;fixedSize=1;" vertex="1" parent="WIyWlLk6GJQsqaUBKTNV-1">
          <mxGeometry x="155" y="1620" width="120" height="30" as="geometry" />
        </mxCell>
        <mxCell id="et5DmNB6f5RG3TRqAMo6-126" value="" style="edgeStyle=orthogonalEdgeStyle;rounded=0;orthogonalLoop=1;jettySize=auto;html=1;" edge="1" parent="WIyWlLk6GJQsqaUBKTNV-1" source="et5DmNB6f5RG3TRqAMo6-121" target="et5DmNB6f5RG3TRqAMo6-125">
          <mxGeometry relative="1" as="geometry" />
        </mxCell>
        <mxCell id="et5DmNB6f5RG3TRqAMo6-121" value="public static int search(int[] arr, int x)" style="rounded=0;whiteSpace=wrap;html=1;" vertex="1" parent="WIyWlLk6GJQsqaUBKTNV-1">
          <mxGeometry x="142.5" y="1670" width="145" height="40" as="geometry" />
        </mxCell>
        <mxCell id="et5DmNB6f5RG3TRqAMo6-128" value="" style="edgeStyle=orthogonalEdgeStyle;rounded=0;orthogonalLoop=1;jettySize=auto;html=1;" edge="1" parent="WIyWlLk6GJQsqaUBKTNV-1" source="et5DmNB6f5RG3TRqAMo6-125" target="et5DmNB6f5RG3TRqAMo6-127">
          <mxGeometry relative="1" as="geometry" />
        </mxCell>
        <mxCell id="et5DmNB6f5RG3TRqAMo6-125" value="int n = arr.Length;" style="shape=parallelogram;perimeter=parallelogramPerimeter;whiteSpace=wrap;html=1;fixedSize=1;rounded=0;" vertex="1" parent="WIyWlLk6GJQsqaUBKTNV-1">
          <mxGeometry x="155" y="1730" width="120" height="30" as="geometry" />
        </mxCell>
        <mxCell id="et5DmNB6f5RG3TRqAMo6-130" value="" style="edgeStyle=orthogonalEdgeStyle;rounded=0;orthogonalLoop=1;jettySize=auto;html=1;" edge="1" parent="WIyWlLk6GJQsqaUBKTNV-1" source="et5DmNB6f5RG3TRqAMo6-127" target="et5DmNB6f5RG3TRqAMo6-129">
          <mxGeometry relative="1" as="geometry" />
        </mxCell>
        <mxCell id="et5DmNB6f5RG3TRqAMo6-127" value="for (int i = 0; i &amp;lt; n; i++)" style="rhombus;whiteSpace=wrap;html=1;rounded=0;" vertex="1" parent="WIyWlLk6GJQsqaUBKTNV-1">
          <mxGeometry x="130" y="1790" width="165" height="60" as="geometry" />
        </mxCell>
        <mxCell id="et5DmNB6f5RG3TRqAMo6-132" value="" style="edgeStyle=orthogonalEdgeStyle;rounded=0;orthogonalLoop=1;jettySize=auto;html=1;" edge="1" parent="WIyWlLk6GJQsqaUBKTNV-1" source="et5DmNB6f5RG3TRqAMo6-129" target="et5DmNB6f5RG3TRqAMo6-131">
          <mxGeometry relative="1" as="geometry" />
        </mxCell>
        <mxCell id="et5DmNB6f5RG3TRqAMo6-135" value="" style="edgeStyle=orthogonalEdgeStyle;rounded=0;orthogonalLoop=1;jettySize=auto;html=1;" edge="1" parent="WIyWlLk6GJQsqaUBKTNV-1" source="et5DmNB6f5RG3TRqAMo6-129" target="et5DmNB6f5RG3TRqAMo6-134">
          <mxGeometry relative="1" as="geometry" />
        </mxCell>
        <mxCell id="et5DmNB6f5RG3TRqAMo6-129" value="if (arr[i] == x)" style="rhombus;whiteSpace=wrap;html=1;rounded=0;" vertex="1" parent="WIyWlLk6GJQsqaUBKTNV-1">
          <mxGeometry x="153.75" y="1870" width="117.5" height="60" as="geometry" />
        </mxCell>
        <mxCell id="et5DmNB6f5RG3TRqAMo6-131" value="return i;" style="shape=parallelogram;perimeter=parallelogramPerimeter;whiteSpace=wrap;html=1;fixedSize=1;rounded=0;" vertex="1" parent="WIyWlLk6GJQsqaUBKTNV-1">
          <mxGeometry x="290" y="1885" width="90" height="30" as="geometry" />
        </mxCell>
        <mxCell id="et5DmNB6f5RG3TRqAMo6-133" value="Да" style="text;html=1;strokeColor=none;fillColor=none;align=center;verticalAlign=middle;whiteSpace=wrap;rounded=0;" vertex="1" parent="WIyWlLk6GJQsqaUBKTNV-1">
          <mxGeometry x="265" y="1880" width="40" height="20" as="geometry" />
        </mxCell>
        <mxCell id="et5DmNB6f5RG3TRqAMo6-134" value="&amp;nbsp;return -1;" style="shape=parallelogram;perimeter=parallelogramPerimeter;whiteSpace=wrap;html=1;fixedSize=1;rounded=0;" vertex="1" parent="WIyWlLk6GJQsqaUBKTNV-1">
          <mxGeometry x="160" y="1950" width="103.75" height="30" as="geometry" />
        </mxCell>
      </root>
    </mxGraphModel>
  </diagram>
</mxfile>
